<svg version="1" xmlns="http://www.w3.org/2000/svg" width="933.333" height="933.333" viewBox="0 0 700.000000 700.000000"><path d="M323.5.7C232.9 8.5 151.2 48.4 92 113.6c-9 10-10.3 11.5-18.1 21.5-18.8 24.1-36.2 54-47.5 81.7-6.2 15.1-14.6 41.1-16.9 52-.2.9-.8 3.7-1.4 6.2-1.1 4.9-1.3 6.3-3.5 19.5-3.4 20.4-4 30.2-4 57 0 23.3 1.1 37.8 3.9 54.5.6 3.2 2.4 12.9 2.9 15.5 3 15.1 11.2 42.5 17.7 58.7 4.8 12.2 13.9 31.1 19.6 40.6 2.4 4.1 4.3 7.6 4.3 7.8 0 .2 3.3 5.5 7.3 11.7 37.6 57.5 90.3 102.3 153.1 130.1 15.2 6.8 38 14.7 51.6 18.1 12.2 3 16.9 4 25 5.5 3 .6 6.6 1.2 8 1.5 1.4.3 5.2.8 8.5 1.1 3.3.3 6.3.8 6.6.9 1.5 1 22.7 2 40.9 2 18.8 0 34.1-.8 43-2.1 14.4-2.1 29.5-4.8 34.5-6.1 3.3-.8 6.7-1.6 7.5-1.8 10.9-2.2 38.8-11.7 54.9-18.7 12.1-5.3 30.8-14.8 35.3-17.9 1.4-1.1 2.9-1.9 3.3-1.9 1.3 0 28.3-18.5 37-25.3 30.9-24.4 61.1-57.3 79-86.3 25.5-41.4 40.4-78.4 49-121.9 1.6-8.3 2.3-12.6 3-18 .3-2.2.8-5 1-6.1 3.3-15.4 2.6-70-1.1-95.4C682 200.5 625 111.8 541 56.5c-39.6-26-89-45.1-135-52.1-2.5-.3-5.3-.8-6.2-1-.9-.1-4.3-.6-7.5-.9-3.2-.4-7.6-.9-9.8-1.1-5-.6-53.6-1.2-59-.7z"/></svg>